<?xml version="1.0" encoding="UTF-8" standalone="no"?>
<svg
   viewBox="0 0 21.311832 13.013301"
   height="13.013301"
   width="21.311832"
   xml:space="preserve"
   id="svg2"
   version="1.1"
   sodipodi:docname="gas.svg"
   inkscape:version="1.1.2 (b8e25be8, 2022-02-05)"
   xmlns:inkscape="http://www.inkscape.org/namespaces/inkscape"
   xmlns:sodipodi="http://sodipodi.sourceforge.net/DTD/sodipodi-0.dtd"
   xmlns="http://www.w3.org/2000/svg"
   xmlns:svg="http://www.w3.org/2000/svg"
   xmlns:rdf="http://www.w3.org/1999/02/22-rdf-syntax-ns#"
   xmlns:cc="http://creativecommons.org/ns#"
   xmlns:dc="http://purl.org/dc/elements/1.1/"><sodipodi:namedview
     id="namedview9"
     pagecolor="#ffffff"
     bordercolor="#666666"
     borderopacity="1.0"
     inkscape:pageshadow="2"
     inkscape:pageopacity="0.0"
     inkscape:pagecheckerboard="0"
     showgrid="false"
     inkscape:zoom="1.1388"
     inkscape:cx="-251.14155"
     inkscape:cy="7.0249385"
     inkscape:window-width="1631"
     inkscape:window-height="1048"
     inkscape:window-x="0"
     inkscape:window-y="60"
     inkscape:window-maximized="0"
     inkscape:current-layer="svg2"
     fit-margin-top="0"
     fit-margin-left="0"
     fit-margin-right="0"
     fit-margin-bottom="0" /><metadata
     id="metadata8"><rdf:RDF><cc:Work
         rdf:about=""><dc:format>image/svg+xml</dc:format><dc:type
           rdf:resource="http://purl.org/dc/dcmitype/StillImage" /></cc:Work></rdf:RDF></metadata><defs
     id="defs6" /><g
     transform="matrix(1.3333333,0,0,-1.3333333,3.5543739e-4,13.334416)"
     id="g10"><g
       transform="scale(0.1)"
       id="g12"><path
         id="path14"
         style="fill:#adadad;fill-opacity:1;fill-rule:nonzero;stroke:none"
         d="m 12.0703,7.37891 c 3.0078,-3.75 128.0507,-4.48828 131.8007,0 13.32,2 24.219,41.01949 -1.492,52.85159 -7.109,3.75 -23,6.1797 -31.25,-1.6797 C 108.75,128.48 14.7695,94.1406 53.7109,44.7305 -0.550781,79.3398 -8.01172,15.0391 12.0703,7.37891 Z" /><path
         id="path16"
         style="fill:none;stroke:#000000;stroke-width:3.75001;stroke-linecap:butt;stroke-linejoin:miter;stroke-miterlimit:4;stroke-dasharray:none;stroke-opacity:1"
         d="m 12.0703,7.37891 c 3.0078,-3.75 128.0507,-4.48828 131.8007,0 13.32,2 24.219,41.01949 -1.492,52.85159 -7.109,3.75 -23,6.1797 -31.25,-1.6797 C 108.75,128.48 14.7695,94.1406 53.7109,44.7305 -0.550781,79.3398 -8.01172,15.0391 12.0703,7.37891 Z" /></g></g></svg>
