<?xml version="1.0" encoding="UTF-8"?>
<svg width="21.312" height="13.013" version="1.1" viewBox="0 0 21.312 13.013" xmlns="http://www.w3.org/2000/svg">
 <path d="m1.6097 12.351c0.40104 0.5 17.073 0.59844 17.573 0 1.776-0.26667 3.2292-5.4693-0.19893-7.0469-0.94787-0.5-3.0667-0.82396-4.1667 0.22396-0.3172-9.3239-12.848-4.7453-7.6557 1.8427-7.2349-4.6146-8.2297 3.9589-5.5521 4.9802z" fill="#adadad"/>
 <path d="m1.6097 12.351c0.40104 0.5 17.073 0.59844 17.573 0 1.776-0.26667 3.2292-5.4693-0.19893-7.0469-0.94787-0.5-3.0667-0.82396-4.1667 0.22396-0.3172-9.3239-12.848-4.7453-7.6557 1.8427-7.2349-4.6146-8.2297 3.9589-5.5521 4.9802z" fill="none" stroke="#000" stroke-width=".5"/>
</svg>
