<?xml version="1.0" encoding="UTF-8"?>
<svg width="283.46" height="274.99" color-interpolation="auto" color-rendering="auto" fill="#000000" font-family="Dialog" font-size="12px" image-rendering="auto" shape-rendering="auto" stroke="#000000" stroke-linecap="square" stroke-miterlimit="10" text-rendering="auto" version="1.1" xmlns="http://www.w3.org/2000/svg">
 <path d="m172.2 106.47 69.967-5.892q29.46-2.3937 30.196-2.3937 9.2063 0 9.2063 7.9174 0 3.1302-1.8413 4.8896-1.8412 1.7389-28.171 18.494l-58.92 37.745 37.745 94.64q0.7365 1.473 0.7365 4.419 0 2.7618-2.0253 4.7872-2.0254 2.0254-4.419 2.0254-2.2096 0-4.6032-1.5548-2.3936-1.5752-25.961-21.829l-52.291-45.295-51.555 44.558q-24.304 20.99-26.616 22.565-2.2913 1.5548-4.5008 1.5548-2.5778 0-4.7055-2.1072-2.1071-2.1276-2.1071-4.7053 0-1.6572 10.495-27.987l27.987-71.072-60.025-38.482q-25.409-16.203-27.169-17.86-1.7389-1.6571-1.7389-4.7873 0-8.1015 9.3904-8.1015 0.7365 0 25.777 2.2095l74.202 6.2603 16.755-71.256q6.4444-27.803 7.9992-30.565 1.5753-2.7619 5.8102-2.7619 4.419 0 5.892 3.0482 1.473 3.0278 8.4697 33.04z" fill="#add8e6" stroke="#000" stroke-miterlimit="10" stroke-width="3.7797"/>
</svg>
