<?xml version="1.0" encoding="UTF-8" standalone="no"?>
<svg
   fill-opacity="1"
   color-rendering="auto"
   color-interpolation="auto"
   text-rendering="auto"
   stroke="#000000"
   stroke-linecap="square"
   stroke-miterlimit="10"
   shape-rendering="auto"
   stroke-opacity="1"
   fill="#000000"
   stroke-dasharray="none"
   font-weight="normal"
   stroke-width="1"
   font-family="Dialog"
   font-style="normal"
   stroke-linejoin="miter"
   font-size="12px"
   stroke-dashoffset="0"
   image-rendering="auto"
   version="1.1"
   id="svg187"
   sodipodi:docname="star.svg"
   width="283.46457"
   height="274.99478"
   inkscape:version="1.1.2 (b8e25be8, 2022-02-05)"
   xmlns:inkscape="http://www.inkscape.org/namespaces/inkscape"
   xmlns:sodipodi="http://sodipodi.sourceforge.net/DTD/sodipodi-0.dtd"
   xmlns="http://www.w3.org/2000/svg"
   xmlns:svg="http://www.w3.org/2000/svg">
  <sodipodi:namedview
     id="namedview189"
     pagecolor="#ffffff"
     bordercolor="#666666"
     borderopacity="1.0"
     inkscape:pageshadow="2"
     inkscape:pageopacity="0.0"
     inkscape:pagecheckerboard="0"
     showgrid="false"
     fit-margin-top="0"
     fit-margin-left="0"
     fit-margin-right="0"
     fit-margin-bottom="0"
     inkscape:zoom="1.1388"
     inkscape:cx="95.275729"
     inkscape:cy="118.54584"
     inkscape:window-width="1778"
     inkscape:window-height="1004"
     inkscape:window-x="2202"
     inkscape:window-y="124"
     inkscape:window-maximized="0"
     inkscape:current-layer="svg187" />
  <!--Unicode Character 'BLACK STAR' (U+2605)-->
  <defs
     id="genericDefs" />
  <g
     id="g185"
     transform="matrix(1.3093283,0,0,1.3093283,-12.103581,-232.13214)"
     style="fill:#add8e6;fill-opacity:1;stroke:#000000;stroke-width:2.88677;stroke-miterlimit:10;stroke-dasharray:none;stroke-opacity:1">
    <g
       id="g183"
       style="fill:#add8e6;fill-opacity:1;stroke:#000000;stroke-width:2.88677;stroke-miterlimit:10;stroke-dasharray:none;stroke-opacity:1">
      <path
         d="m 140.7656,258.6094 53.4375,-4.5 q 22.5,-1.8282 23.0625,-1.8282 7.0313,0 7.0313,6.0469 0,2.3907 -1.4063,3.7344 -1.4062,1.3281 -21.5156,14.125 l -45,28.8281 28.8281,72.2813 q 0.5625,1.125 0.5625,3.375 0,2.1093 -1.5468,3.6562 -1.5469,1.5469 -3.375,1.5469 -1.6876,0 -3.5157,-1.1875 Q 175.5,383.4844 157.5,368.0156 l -39.9375,-34.5937 -39.375,34.0312 q -18.5625,16.0313 -20.3281,17.2344 -1.75,1.1875 -3.4375,1.1875 -1.9688,0 -3.5938,-1.6094 -1.6093,-1.625 -1.6093,-3.5937 0,-1.2657 8.0156,-21.375 L 78.6094,305.0156 32.7656,275.625 q -19.4062,-12.375 -20.75,-13.6406 -1.3281,-1.2656 -1.3281,-3.6563 0,-6.1875 7.1719,-6.1875 0.5625,0 19.6875,1.6875 l 56.6719,4.7813 12.7968,-54.4219 q 4.9219,-21.2344 6.1094,-23.3437 1.2031,-2.1094 4.4375,-2.1094 3.375,0 4.5,2.3281 1.125,2.3125 6.4687,25.2344 z"
         stroke="none"
         id="path181"
         style="fill:#add8e6;fill-opacity:1;stroke:#000000;stroke-width:2.88677;stroke-miterlimit:10;stroke-dasharray:none;stroke-opacity:1" />
    </g>
  </g>
</svg>
